<svg width="24" height="24" viewBox="0 0 24 24" fill="none" xmlns="http://www.w3.org/2000/svg">
<path d="M3 17.8711C3 19.6999 4.48901 21.1889 6.31776 21.1889H18.1144C19.9433 21.1889 21.4322 19.6999 21.4322 17.8711V10.38C21.4322 9.28857 20.8966 8.26905 19.998 7.6497L14.0997 3.58324C12.9736 2.80559 11.4587 2.80559 10.3327 3.58324L4.43439 7.6499C3.53578 8.26905 3.00021 9.2914 3.00021 10.38L3 17.8711ZM4.7281 10.38C4.7281 9.85871 4.98444 9.36916 5.41637 9.07242L11.3147 5.00596C11.5855 4.81873 11.9023 4.72652 12.2161 4.72652C12.5301 4.72652 12.8497 4.81873 13.1175 5.00596L19.0158 9.07242C19.4449 9.36913 19.7041 9.85871 19.7041 10.38V17.8711C19.7041 18.7466 18.9899 19.4608 18.1144 19.4608L6.31776 19.461C5.44229 19.461 4.7281 18.7466 4.7281 17.8711V10.38Z" fill="#640C66"/>
<path d="M9.336 18.3088C9.81412 18.3088 10.2 17.9229 10.2 17.4447V14.5676C10.2 14.248 10.4592 13.9888 10.779 13.9888H13.6532C13.9728 13.9888 14.232 14.2479 14.232 14.5678V17.4447C14.232 17.9229 14.6179 18.3088 15.096 18.3088C15.5742 18.3088 15.9601 17.9229 15.9601 17.4447V14.5676C15.9601 13.2945 14.9261 12.2607 13.6533 12.2607H10.7791C9.50602 12.2609 8.47205 13.2947 8.47205 14.5678V17.4447C8.47205 17.9229 8.85796 18.3088 9.3361 18.3088H9.336Z" fill="#640C66"/>
</svg>
