<svg width="48" height="48" viewBox="0 0 48 48" fill="none" xmlns="http://www.w3.org/2000/svg">
<path fill-rule="evenodd" clip-rule="evenodd" d="M10.5006 0.11055C9.00158 0.531576 7.86899 1.73537 7.58643 3.20774C7.50782 3.61751 7.48671 7.74025 7.50753 18.5898L7.53615 33.412L7.78747 34.3225C8.36131 36.4019 9.57552 38.2979 11.0562 39.4271L11.5227 39.7829V42.9816V46.1804L11.7646 46.6659C12.0501 47.2389 12.5785 47.6873 13.1819 47.869C13.5415 47.9772 15.3243 47.9997 23.5288 47.9997C34.5133 47.9997 33.918 48.0326 34.6749 47.3846C34.8828 47.2066 35.1516 46.8607 35.2722 46.6157C35.4827 46.1883 35.4928 46.0698 35.5218 43.6694L35.552 41.1685L35.8021 41.1057C36.2155 41.0019 37.3356 40.4092 37.8518 40.0212C39.4257 38.8378 40.5486 37.0765 40.9289 35.1944C41.0609 34.541 41.0768 33.6853 41.0519 28.5807L41.0233 22.7175L40.8061 22.1337C40.2014 20.5089 38.7624 19.1322 37.1475 18.6334C36.8184 18.5318 36.1318 18.4213 35.6217 18.3878L34.6942 18.327L34.693 15.691C34.6918 12.8278 34.6472 12.4792 34.1697 11.6018C33.8389 10.994 33.0694 10.2818 32.4027 9.9664C31.2258 9.40973 29.5568 9.51179 28.5883 10.1998L28.3457 10.3721L28.2311 9.74979C27.8275 7.55967 25.8949 6.15765 23.6942 6.45869C22.8863 6.56911 22.2083 6.90974 21.5539 7.53396C21.016 8.04702 20.4348 9.00896 20.4348 9.38618C20.4348 9.58984 20.4201 9.58628 19.6186 9.19021C19.01 8.88935 18.8094 8.83841 18.1046 8.8053C17.4461 8.77434 17.1773 8.80595 16.6861 8.972C16.3528 9.08476 15.9663 9.25794 15.8273 9.35691C15.6883 9.45598 15.5494 9.53694 15.5187 9.53694C15.4879 9.53694 15.4628 8.14824 15.4628 6.451C15.4628 3.6419 15.4462 3.31169 15.2775 2.76889C14.919 1.61557 14.0627 0.695841 12.9298 0.247608C12.2572 -0.0185353 11.1772 -0.0795129 10.5006 0.11055ZM12.2852 1.70629C12.8707 1.90582 13.3393 2.32141 13.625 2.8946L13.868 3.38223V10.9453C13.868 16.0156 13.9017 18.6918 13.9705 19.065C14.1212 19.8828 14.4912 20.586 15.0812 21.1756C16.6305 22.724 19.0883 22.7596 20.6483 21.256L21.1142 20.8069L21.3594 21.0984C21.6888 21.4898 22.5745 22.0521 23.0885 22.196L23.5061 22.3129L23.5576 22.8802C23.6315 23.6955 24.1405 24.681 24.7981 25.282C25.7434 26.1459 26.6444 26.4139 28.6246 26.4201L29.5442 26.423L28.7098 27.2171C27.3883 28.4746 26.6294 29.7532 26.2029 31.4409C25.9674 32.3724 25.8191 33.9245 25.9161 34.4416C26.042 35.1124 26.7719 35.3857 27.2257 34.9319C27.4188 34.7388 27.4471 34.5994 27.4967 33.5951C27.5639 32.2352 27.8033 31.2633 28.3108 30.2893C29.272 28.4448 30.9466 27.117 32.9502 26.6106C33.504 26.4706 34.0038 26.4229 34.9202 26.4225C36.4656 26.4218 36.8207 26.3328 37.0013 25.9006C37.1182 25.6207 37.1181 25.5363 37 25.2538C36.9159 25.0524 36.7815 24.9097 36.6469 24.8785C36.5274 24.8509 34.2978 24.8177 31.6922 24.8049C26.2985 24.778 26.4909 24.8047 25.7521 23.983C24.6602 22.7686 25.0025 20.9919 26.4807 20.2005C26.8564 19.9994 26.9167 19.9969 31.5984 19.9969H36.3359L36.9224 20.244C37.9853 20.692 38.827 21.5116 39.2219 22.4829C39.4299 22.9946 39.4318 23.0461 39.4583 28.6745C39.4882 35.0597 39.4834 35.1181 38.8198 36.4409C37.7912 38.4915 35.8646 39.7695 33.4658 39.9924C32.9285 40.0424 32.732 40.1031 32.5639 40.2713C32.3524 40.4827 32.2854 40.8771 32.4071 41.1942C32.5006 41.4377 32.9584 41.6205 33.4749 41.6205H33.9535L33.9251 43.7865L33.8968 45.9525L33.6335 46.1787L33.3703 46.4049H23.4742H13.578L13.3478 46.1746L13.1175 45.9444V43.3603C13.1175 41.939 13.1491 40.7762 13.1878 40.7763C13.2266 40.7763 13.4866 40.8631 13.7657 40.9692C15.0023 41.4392 16.9963 41.7291 17.4328 41.5023C17.7293 41.3483 17.9361 40.9253 17.861 40.6262C17.749 40.1796 17.518 40.0585 16.6434 39.9875C13.5498 39.7365 11.1246 38.0648 9.82234 35.2858C9.597 34.805 9.36557 34.1075 9.26022 33.5922C9.08798 32.7489 9.08216 32.164 9.1059 18.0073C9.12954 3.86808 9.13723 3.2857 9.30515 2.97012C9.91577 1.82224 11.1229 1.31031 12.2852 1.70629ZM25.026 8.08989C25.3846 8.19637 25.65 8.36401 25.9757 8.68972C26.7218 9.43581 26.7262 9.46986 26.6977 14.315L26.6733 18.4753L26.2779 18.592C25.4409 18.8391 24.4406 19.657 24.0489 20.4145C23.9087 20.6856 23.8575 20.7143 23.6043 20.6637C23.118 20.5664 22.4806 20.0335 22.1937 19.4843L21.9308 18.981L21.9568 14.275L21.9827 9.56893L22.2675 9.10728C22.4577 8.79892 22.7182 8.54628 23.052 8.34609C23.7576 7.92291 24.249 7.85911 25.026 8.08989ZM18.8875 10.6018C19.1459 10.7222 19.4995 10.9825 19.6732 11.1804C20.2999 11.894 20.2941 11.8529 20.2941 15.5878V18.965L20.0393 19.448C19.0214 21.3779 16.2186 21.1362 15.6008 19.0652C15.3943 18.373 15.4007 12.7822 15.6087 12.0813C16.0132 10.7194 17.6013 10.0028 18.8875 10.6018ZM31.6521 11.3669C32.0699 11.5359 32.6101 12.0406 32.8469 12.4831C33.0428 12.8492 33.0538 12.996 33.0812 15.6112L33.1098 18.3552H30.7124H28.315L28.317 15.7051C28.3189 13.242 28.3326 13.025 28.5102 12.6327C29.0645 11.408 30.4118 10.8652 31.6521 11.3669ZM14.9426 43.4456C14.6198 43.7683 14.6366 44.186 14.9865 44.5359C15.2299 44.7794 15.3253 44.8101 15.8355 44.8101C16.4393 44.8101 16.9005 44.6412 16.9993 44.3838C17.1245 44.0574 17.0539 43.6722 16.8273 43.4456C16.6233 43.2416 16.5159 43.2153 15.8849 43.2153C15.2539 43.2153 15.1465 43.2416 14.9426 43.4456ZM18.9934 43.4098C18.7454 43.6048 18.6648 44.02 18.8044 44.3838C18.9663 44.8054 19.0399 44.8101 25.5006 44.8101C31.9613 44.8101 32.035 44.8054 32.1968 44.3838C32.322 44.0574 32.2514 43.6722 32.0247 43.4456L31.7945 43.2153H25.5175C19.3093 43.2153 19.2378 43.2175 18.9934 43.4098Z" fill="black"/>
<path d="M18.8875 10.6018C19.1459 10.7222 19.4995 10.9825 19.6732 11.1804C20.2999 11.894 20.2941 11.8529 20.2941 15.5878V18.965L20.0393 19.448C19.0214 21.3779 16.2186 21.1362 15.6008 19.0652C15.3943 18.373 15.4007 12.7822 15.6087 12.0813C16.0132 10.7194 17.6013 10.0028 18.8875 10.6018Z" fill="#F9DBBB"/>
<path d="M25.026 8.08989C25.3846 8.19637 25.65 8.36401 25.9757 8.68972C26.7218 9.43581 26.7262 9.46986 26.6977 14.315L26.6733 18.4753L26.2779 18.592C25.4409 18.8391 24.4406 19.657 24.0489 20.4145C23.9087 20.6856 23.8575 20.7143 23.6043 20.6637C23.118 20.5664 22.4806 20.0335 22.1937 19.4843L21.9308 18.981L21.9568 14.275L21.9827 9.56893L22.2675 9.10728C22.4577 8.79892 22.7182 8.54628 23.052 8.34609C23.7576 7.92291 24.249 7.85911 25.026 8.08989Z" fill="#F9DBBB"/>
<path d="M31.6521 11.3669C32.0699 11.5359 32.6101 12.0406 32.8469 12.4831C33.0428 12.8492 33.0538 12.996 33.0812 15.6112L33.1098 18.3552H30.7124H28.315L28.317 15.7051C28.3189 13.242 28.3326 13.025 28.5102 12.6327C29.0645 11.408 30.4118 10.8652 31.6521 11.3669Z" fill="#F9DBBB"/>
<path fill-rule="evenodd" clip-rule="evenodd" d="M12.2852 1.70629C12.8707 1.90582 13.3393 2.32141 13.625 2.8946L13.868 3.38223V10.9453C13.868 16.0156 13.9017 18.6918 13.9705 19.065C14.1212 19.8828 14.4912 20.586 15.0812 21.1756C16.6305 22.724 19.0883 22.7596 20.6483 21.256L21.1142 20.8069L21.3594 21.0984C21.6888 21.4898 22.5745 22.0521 23.0885 22.196L23.5061 22.3129L23.5576 22.8802C23.6315 23.6955 24.1405 24.681 24.7981 25.282C25.7434 26.1459 26.6444 26.4139 28.6246 26.4201L29.5442 26.423L28.7098 27.2171C27.3883 28.4746 26.6294 29.7532 26.2029 31.4409C25.9674 32.3724 25.8191 33.9245 25.9161 34.4416C26.042 35.1124 26.7719 35.3857 27.2257 34.9319C27.4188 34.7388 27.4471 34.5994 27.4967 33.5951C27.5639 32.2352 27.8033 31.2633 28.3108 30.2893C29.272 28.4448 30.9466 27.117 32.9502 26.6106C33.504 26.4706 34.0038 26.4229 34.9202 26.4225C36.4656 26.4218 36.8207 26.3328 37.0013 25.9006C37.1182 25.6207 37.1181 25.5363 37 25.2538C36.9159 25.0524 36.7815 24.9097 36.6469 24.8785C36.5274 24.8509 34.2978 24.8177 31.6922 24.8049C26.2985 24.778 26.4909 24.8047 25.7521 23.983C24.6602 22.7686 25.0025 20.9919 26.4807 20.2005C26.8564 19.9994 26.9167 19.9969 31.5984 19.9969H36.3359L36.9224 20.244C37.9853 20.692 38.827 21.5116 39.2219 22.4829C39.4299 22.9946 39.4318 23.0461 39.4583 28.6745C39.4882 35.0597 39.4834 35.1181 38.8198 36.4409C37.7912 38.4915 35.8646 39.7695 33.4658 39.9924C32.9285 40.0424 32.732 40.1031 32.5639 40.2713C32.3524 40.4827 32.2854 40.8771 32.4071 41.1942C32.5006 41.4377 32.9584 41.6205 33.4749 41.6205H33.9535L33.9251 43.7865L33.8968 45.9525L33.6335 46.1787L33.3703 46.4049H23.4742H13.578L13.3478 46.1746L13.1175 45.9444V43.3603C13.1175 41.939 13.1491 40.7762 13.1878 40.7763C13.2266 40.7763 13.4866 40.8631 13.7657 40.9692C15.0023 41.4392 16.9963 41.7291 17.4328 41.5023C17.7293 41.3483 17.9361 40.9253 17.861 40.6262C17.749 40.1796 17.518 40.0585 16.6434 39.9875C13.5498 39.7365 11.1246 38.0648 9.82234 35.2858C9.597 34.805 9.36557 34.1075 9.26022 33.5922C9.08798 32.7489 9.08216 32.164 9.1059 18.0073C9.12954 3.86808 9.13723 3.2857 9.30515 2.97012C9.91577 1.82224 11.1229 1.31031 12.2852 1.70629ZM14.9865 44.5359C14.6366 44.186 14.6198 43.7683 14.9426 43.4456C15.1465 43.2416 15.2539 43.2153 15.8849 43.2153C16.5159 43.2153 16.6233 43.2416 16.8273 43.4456C17.0539 43.6722 17.1245 44.0574 16.9993 44.3838C16.9005 44.6412 16.4393 44.8101 15.8355 44.8101C15.3253 44.8101 15.2299 44.7794 14.9865 44.5359ZM18.8044 44.3838C18.6648 44.02 18.7454 43.6048 18.9934 43.4098C19.2378 43.2175 19.3093 43.2153 25.5175 43.2153H31.7945L32.0247 43.4456C32.2514 43.6722 32.322 44.0574 32.1968 44.3838C32.035 44.8054 31.9613 44.8101 25.5006 44.8101C19.0399 44.8101 18.9663 44.8054 18.8044 44.3838Z" fill="#F9DBBB"/>
</svg>
