<svg width="48" height="48" viewBox="0 0 48 48" fill="none" xmlns="http://www.w3.org/2000/svg">
<path d="M16 35.2727V12H23.8636C25.6818 12 27.1742 12.3106 28.3409 12.9318C29.5076 13.5455 30.3712 14.3902 30.9318 15.4659C31.4924 16.5417 31.7727 17.7652 31.7727 19.1364C31.7727 20.5076 31.4924 21.7235 30.9318 22.7841C30.3712 23.8447 29.5114 24.678 28.3523 25.2841C27.1932 25.8826 25.7121 26.1818 23.9091 26.1818H17.5455V23.6364H23.8182C25.0606 23.6364 26.0606 23.4545 26.8182 23.0909C27.5833 22.7273 28.1364 22.2121 28.4773 21.5455C28.8258 20.8712 29 20.0682 29 19.1364C29 18.2045 28.8258 17.3902 28.4773 16.6932C28.1288 15.9962 27.572 15.4583 26.8068 15.0795C26.0417 14.6932 25.0303 14.5 23.7727 14.5H18.8182V35.2727H16ZM26.9545 24.8182L32.6818 35.2727H29.4091L23.7727 24.8182H26.9545Z" fill="black"/>
</svg>
