<svg width="48" height="48" viewBox="0 0 48 48" fill="none" xmlns="http://www.w3.org/2000/svg">
<path d="M23.3872 0.113132C22.2241 0.394534 21.2017 1.2106 20.7139 2.25179C20.5545 2.57071 20.4325 2.91778 20.4325 3.0022C20.4325 3.21794 20.4044 3.21794 19.9354 2.94592C19.1943 2.52381 18.6128 2.39249 17.6748 2.43939C16.7086 2.49567 16.174 2.68327 15.4329 3.24608C14.9076 3.64942 14.3261 4.47487 14.1103 5.12209L13.9603 5.57234L13.3506 5.27217C12.1593 4.67185 10.9586 4.63433 9.7955 5.16899C8.74494 5.65676 7.83507 6.80113 7.58181 7.95488C7.50677 8.33946 7.48801 10.919 7.50677 17.7571L7.53491 27.0433L7.79755 27.9813C8.31345 29.8667 9.49534 31.7615 10.8648 32.8777L11.5214 33.4124V39.8002V46.1881L11.7653 46.6758C11.8966 46.9479 12.1593 47.2855 12.3469 47.445C13.0692 48.0359 12.5439 48.0172 23.678 47.989L33.7991 47.9609L34.1837 47.7545C34.3901 47.642 34.709 47.3887 34.8778 47.2011C35.5157 46.4695 35.4875 46.7696 35.5157 40.5037L35.5438 34.8288L36.2004 34.5568C38.2547 33.7219 39.9618 31.8647 40.7216 29.6229L41.0218 28.7317L41.0499 22.8223C41.0781 18.6013 41.0499 16.7628 40.9749 16.3969C40.8154 15.6653 40.2151 14.4646 39.7179 13.9018C38.7049 12.7575 37.2791 12.0915 35.6564 12.0071L34.6996 11.9602L34.6715 9.08986L34.6433 6.21956L34.3244 5.5442C33.5646 3.92144 31.7449 2.93654 30.094 3.24608C29.6437 3.3305 28.9027 3.6119 28.3962 3.8933C28.3681 3.91206 28.3024 3.66818 28.2367 3.35864C27.8053 1.04176 25.6103 -0.430913 23.3872 0.113132ZM25.0194 1.72651C25.3852 1.82969 25.6478 1.99853 25.9668 2.32683C26.7453 3.10538 26.7172 2.71141 26.7172 11.191C26.7172 19.6706 26.7453 19.2766 25.9668 20.0646C24.7473 21.284 22.7494 20.8806 22.074 19.2766C21.9521 18.9765 21.9333 17.9259 21.9333 11.1629V3.39616L22.1866 2.89902C22.5524 2.15799 23.4154 1.60456 24.2408 1.5858C24.4003 1.57642 24.7473 1.64208 25.0194 1.72651ZM18.8848 4.24037C19.4007 4.47487 19.9166 5.00015 20.1136 5.47853C20.2168 5.72242 20.2449 6.48221 20.2449 8.93041V12.0633L19.8134 12.2134C18.7816 12.5605 17.9749 13.3015 17.4965 14.3239C16.9337 15.5152 17.0651 17.1474 17.8061 18.2261C18.0781 18.62 18.6128 19.1359 19.0255 19.408L19.26 19.558L18.9317 19.7363C18.6972 19.8582 18.4064 19.9145 17.8999 19.9145C17.0744 19.9145 16.6148 19.7081 16.1177 19.1547C15.4798 18.423 15.508 18.7795 15.508 12.0352C15.508 6.36026 15.5174 5.91002 15.6768 5.4973C15.8738 4.98139 16.5867 4.28727 17.0744 4.13718C17.6279 3.95896 18.3689 3.99648 18.8848 4.24037ZM31.6417 4.99077C32.0732 5.16899 32.6079 5.67552 32.8424 6.11638C33.0485 6.50061 33.0487 6.53842 33.0768 12.1133C33.0768 12.1185 33.0768 12.1238 33.0769 12.129C33.0956 15.9748 33.0675 17.8884 33.0018 18.1698C32.7392 19.211 31.9231 19.8676 30.8069 19.9426C30.2065 19.9708 30.0846 19.952 29.625 19.7081C29.0528 19.4079 28.5557 18.8358 28.4056 18.2917C28.3493 18.0666 28.3118 15.9092 28.3118 12.3166V6.68857L28.5369 6.21956C29.1091 5.01891 30.4411 4.49363 31.6417 4.99077ZM12.1874 6.51035C12.8159 6.69795 13.5757 7.42021 13.7539 8.01116C13.9134 8.56458 13.9134 17.0067 13.7539 17.5601C13.5757 18.151 12.8159 18.8733 12.1874 19.0609C11.5496 19.2485 11.3995 19.2485 10.7804 19.0609C10.0957 18.8639 9.42968 18.1979 9.2327 17.5132C9.02634 16.8284 9.00758 8.7897 9.21394 8.11434C9.45782 7.30765 10.0581 6.70732 10.8461 6.49158C11.437 6.33212 11.5871 6.33212 12.1874 6.51035ZM36.4068 13.7236C37.8795 14.1082 38.9206 15.0931 39.324 16.5001C39.4647 16.9691 39.4741 17.682 39.4553 22.7379L39.4272 28.4503L39.1645 29.2007C38.2922 31.6771 36.191 33.3186 33.6115 33.5531C32.7204 33.6375 32.4953 33.7407 32.3546 34.1253C32.1576 34.7162 32.5516 35.1665 33.3301 35.2321L33.846 35.2697V40.5975C33.846 45.7003 33.8366 45.9348 33.6678 46.1412L33.4896 46.3663L23.6968 46.3944C18.322 46.4038 13.8196 46.3944 13.707 46.3663C13.5944 46.3381 13.4068 46.2256 13.3037 46.113C13.1161 45.916 13.1161 45.8035 13.1161 40.1098V34.3035L13.3881 34.4536C14.3448 34.9414 16.8024 35.3447 17.4027 35.1008C17.928 34.8945 18.0594 34.3223 17.6841 33.8814C17.4872 33.6563 17.384 33.6281 16.5492 33.5531C13.6038 33.3092 11.1931 31.6865 9.92683 29.0976C9.19518 27.6061 9.14828 27.2966 9.10138 23.4414C9.08262 21.5654 9.10138 20.0552 9.14828 20.0739C9.1858 20.0927 9.5141 20.2522 9.87055 20.4304C11.1462 21.0495 12.6564 20.89 13.8477 20.0177L14.4199 19.5956L14.6825 19.952C15.4423 20.9744 16.5961 21.556 17.8624 21.556C18.7066 21.556 19.6071 21.2933 20.1511 20.8806C20.3762 20.7118 20.6107 20.5336 20.6764 20.4773C20.7702 20.4116 20.8452 20.4491 20.9672 20.618C21.2767 21.0776 21.9427 21.6498 22.4867 21.9312C23.6217 22.5034 24.8787 22.5128 26.0512 21.9499C26.5389 21.7248 27.3644 21.0026 27.6645 20.5523L27.7959 20.346L28.1336 20.6555L28.4619 20.965L27.8615 21.7061C27.1299 22.6159 26.417 24.0511 26.1544 25.1204C26.0512 25.5613 25.9386 26.4242 25.9011 27.0433L25.8448 28.1689L26.0981 28.4785C26.4264 28.8537 26.8954 28.8912 27.2237 28.5629C27.4113 28.3753 27.4488 28.2252 27.5051 27.2028C27.6083 25.3174 28.1148 23.9291 29.1654 22.6347C29.9158 21.7061 30.1127 21.5935 30.9945 21.5372C31.9325 21.4809 32.7673 21.1245 33.4333 20.4773L33.8929 20.0364L35.2718 19.9895C36.4537 19.9426 36.6788 19.9051 36.8476 19.755C37.1009 19.5111 37.1666 19.1828 37.0165 18.8733C36.8289 18.4699 36.5287 18.3668 35.5344 18.3668H34.6433L34.6715 15.9748L34.6996 13.5829H35.2812C35.6095 13.5829 36.116 13.6486 36.4068 13.7236ZM20.2449 15.9748C20.2449 17.1849 20.2261 18.1792 20.198 18.1792C20.0292 18.1792 19.5789 17.8602 19.3163 17.5695C18.6597 16.819 18.5377 15.8248 18.9974 14.9149C19.2319 14.4271 19.9072 13.7705 20.1605 13.7705C20.2074 13.7705 20.2449 14.6898 20.2449 15.9748Z" fill="black"/>
<path d="M36.4068 13.7236C37.8795 14.1082 38.9206 15.0931 39.324 16.5001C39.4647 16.9691 39.4741 17.682 39.4553 22.7379L39.4272 28.4503L39.1645 29.2007C38.2922 31.6771 36.191 33.3186 33.6115 33.5531C32.7204 33.6375 32.4953 33.7407 32.3546 34.1253C32.1576 34.7162 32.5516 35.1665 33.3301 35.2321L33.846 35.2697V40.5975C33.846 45.7003 33.8366 45.9348 33.6678 46.1412L33.4896 46.3663L23.6968 46.3944C18.322 46.4038 13.8196 46.3944 13.707 46.3663C13.5944 46.3381 13.4068 46.2256 13.3037 46.113C13.1161 45.916 13.1161 45.8035 13.1161 40.1098V34.3035L13.3881 34.4536C14.3448 34.9414 16.8024 35.3447 17.4027 35.1008C17.928 34.8945 18.0594 34.3223 17.6841 33.8814C17.4872 33.6563 17.384 33.6281 16.5492 33.5531C13.6038 33.3092 11.1931 31.6865 9.92683 29.0976C9.19518 27.6061 9.14828 27.2966 9.10138 23.4414C9.08262 21.5654 9.10138 20.0552 9.14828 20.0739C9.1858 20.0927 9.5141 20.2522 9.87055 20.4304C11.1462 21.0495 12.6564 20.89 13.8477 20.0177L14.4199 19.5956L14.6825 19.952C15.4423 20.9744 16.5961 21.556 17.8624 21.556C18.7066 21.556 19.6071 21.2933 20.1511 20.8806C20.3762 20.7118 20.6107 20.5336 20.6764 20.4773C20.7702 20.4116 20.8452 20.4491 20.9672 20.618C21.2767 21.0776 21.9427 21.6498 22.4867 21.9312C23.6217 22.5034 24.8787 22.5128 26.0512 21.9499C26.5389 21.7248 27.3644 21.0026 27.6645 20.5523L27.7959 20.346L28.1336 20.6555L28.4619 20.965L27.8615 21.7061C27.1299 22.6159 26.417 24.0511 26.1544 25.1204C26.0512 25.5613 25.9386 26.4242 25.9011 27.0433L25.8448 28.1689L26.0981 28.4785C26.4264 28.8537 26.8954 28.8912 27.2237 28.5629C27.4113 28.3753 27.4488 28.2252 27.5051 27.2028C27.6083 25.3174 28.1148 23.9291 29.1654 22.6347C29.9158 21.7061 30.1127 21.5935 30.9945 21.5372C31.9325 21.4809 32.7673 21.1245 33.4333 20.4773L33.8929 20.0364L35.2718 19.9895C36.4537 19.9426 36.6788 19.9051 36.8476 19.755C37.1009 19.5111 37.1666 19.1828 37.0165 18.8733C36.8289 18.4699 36.5287 18.3668 35.5344 18.3668H34.6433L34.6715 15.9748L34.6996 13.5829H35.2812C35.6095 13.5829 36.116 13.6486 36.4068 13.7236Z" fill="#F9DBBB"/>
<path d="M31.6417 4.99077C32.0732 5.16899 32.6079 5.67552 32.8424 6.11638C33.0485 6.50061 33.0487 6.53842 33.0768 12.1133L33.0769 12.129C33.0956 15.9748 33.0675 17.8884 33.0018 18.1698C32.7392 19.211 31.9231 19.8676 30.8069 19.9426C30.2065 19.9708 30.0846 19.952 29.625 19.7081C29.0528 19.4079 28.5557 18.8358 28.4056 18.2917C28.3493 18.0666 28.3118 15.9092 28.3118 12.3166V6.68857L28.5369 6.21956C29.1091 5.01891 30.4411 4.49363 31.6417 4.99077Z" fill="#F9DBBB"/>
<path d="M18.8848 4.24037C19.4007 4.47487 19.9166 5.00015 20.1136 5.47853C20.2168 5.72242 20.2449 6.48221 20.2449 8.93041V12.0633L19.8134 12.2134C18.7816 12.5605 17.9749 13.3015 17.4965 14.3239C16.9337 15.5152 17.0651 17.1474 17.8061 18.2261C18.0781 18.62 18.6128 19.1359 19.0255 19.408L19.26 19.558L18.9317 19.7363C18.6972 19.8582 18.4064 19.9145 17.8999 19.9145C17.0744 19.9145 16.6148 19.7081 16.1177 19.1547C15.4798 18.423 15.508 18.7795 15.508 12.0352C15.508 6.36026 15.5174 5.91002 15.6768 5.4973C15.8738 4.98139 16.5867 4.28727 17.0744 4.13718C17.6279 3.95896 18.3689 3.99648 18.8848 4.24037Z" fill="#F9DBBB"/>
<path d="M12.1874 6.51035C12.8159 6.69795 13.5757 7.42021 13.7539 8.01116C13.9134 8.56458 13.9134 17.0067 13.7539 17.5601C13.5757 18.151 12.8159 18.8733 12.1874 19.0609C11.5496 19.2485 11.3995 19.2485 10.7804 19.0609C10.0957 18.8639 9.42968 18.1979 9.2327 17.5132C9.02634 16.8284 9.00758 8.7897 9.21394 8.11434C9.45782 7.30765 10.0581 6.70732 10.8461 6.49158C11.437 6.33212 11.5871 6.33212 12.1874 6.51035Z" fill="#F9DBBB"/>
<path d="M20.2449 15.9748C20.2449 17.1849 20.2261 18.1792 20.198 18.1792C20.0292 18.1792 19.5789 17.8602 19.3163 17.5695C18.6597 16.819 18.5377 15.8248 18.9974 14.9149C19.2319 14.4271 19.9072 13.7705 20.1605 13.7705C20.2074 13.7705 20.2449 14.6898 20.2449 15.9748Z" fill="#F9DBBB"/>
<path d="M25.0194 1.72651C25.3852 1.82969 25.6478 1.99853 25.9668 2.32683C26.7453 3.10538 26.7172 2.71141 26.7172 11.191C26.7172 19.6706 26.7453 19.2766 25.9668 20.0646C24.7473 21.284 22.7494 20.8806 22.074 19.2766C21.9521 18.9765 21.9333 17.9259 21.9333 11.1629V3.39616L22.1866 2.89902C22.5524 2.15799 23.4154 1.60456 24.2408 1.5858C24.4003 1.57642 24.7473 1.64208 25.0194 1.72651Z" fill="#F9DBBB"/>
<path d="M14.9451 43.4585C14.5043 43.89 14.72 44.631 15.3297 44.7811C15.4517 44.8186 15.8175 44.8186 16.1364 44.7998C16.8212 44.7529 17.0557 44.5372 17.0557 43.9744C17.0557 43.4209 16.7461 43.224 15.8644 43.224C15.2547 43.224 15.1421 43.2521 14.9451 43.4585Z" fill="black"/>
<path d="M19.0443 43.374C18.716 43.5992 18.6316 43.9275 18.7816 44.3027C18.8567 44.4715 18.9974 44.6591 19.1006 44.7154C19.3632 44.8561 31.623 44.8561 31.8856 44.7248C32.1482 44.5841 32.364 44.1151 32.2889 43.8337C32.2608 43.7024 32.1201 43.5147 31.9982 43.4116C31.7637 43.2333 31.5948 43.224 25.5071 43.224C19.926 43.224 19.2319 43.2427 19.0443 43.374Z" fill="black"/>
</svg>
