<svg width="48" height="48" viewBox="0 0 48 48" fill="none" xmlns="http://www.w3.org/2000/svg">
<path d="M24.0564 0.191227C22.472 0.691085 21.4062 2.08692 21.3025 3.77512C21.2647 4.42587 21.3496 4.87857 22.3493 9.18867C22.9529 11.7728 23.4434 13.9609 23.4434 14.0458C23.4434 14.1307 22.9529 15.0455 22.3588 16.0829L21.2742 17.9692V14.5268C21.2742 12.6311 21.227 10.8203 21.1799 10.4902C20.8592 8.26441 18.7183 6.67052 16.5868 7.06663C16.2379 7.13265 15.7192 7.29299 15.4362 7.42502C14.8043 7.72682 13.9272 8.56621 13.6726 9.12265C13.4934 9.51877 13.333 9.62251 13.2104 9.43389C13.0784 9.2264 12.0032 8.76427 11.3808 8.66052C9.40019 8.321 7.41019 9.64137 6.88204 11.6408C6.77829 12.0369 6.75 13.9798 6.75 22.3265C6.75 29.1358 6.78773 32.7669 6.85374 33.2573C7.04237 34.6437 7.63654 36.1527 8.46649 37.3788C8.92863 38.0673 9.91891 39.1236 10.4282 39.4725L10.8055 39.7366V42.9527V46.1782L11.0507 46.6686C11.1827 46.9421 11.4468 47.2816 11.6354 47.442C12.3616 48.0361 11.8335 48.0173 23.0284 47.989L33.2048 47.9607L33.5914 47.7532C33.7989 47.64 34.1196 47.3854 34.2894 47.1968C34.8741 46.5177 34.893 46.414 34.9307 43.6883L34.959 41.2079L35.4022 41.0193C37.496 40.161 39.0899 38.6049 39.9293 36.5771C40.514 35.1813 40.5234 34.9927 40.4951 28.4851L40.4668 22.5905L40.2499 22.0058C39.7689 20.7326 38.7221 19.5159 37.5997 18.9312C36.5434 18.3747 36.1096 18.2804 34.2705 18.2333L32.5917 18.1861V17.9503C32.5917 17.8277 32.4691 17.1958 32.3088 16.5451L32.0258 15.3756L34.4874 11.0372C35.987 8.39645 36.9961 6.50076 37.081 6.19896C37.694 3.90715 36.2039 1.61535 33.8272 1.20981C32.2239 0.936298 30.4885 1.77568 29.7057 3.21867C29.5643 3.47331 29.4228 3.6808 29.3945 3.6808C29.3568 3.6808 29.253 3.38843 29.1682 3.02061C28.5834 0.766536 26.2728 -0.506688 24.0564 0.191227ZM26.3293 1.77568C26.8575 2.03976 27.3479 2.6245 27.5271 3.17151C27.7252 3.77511 31.0167 18.1107 30.979 18.1578C30.9601 18.1767 29.8566 18.205 28.5268 18.2238L26.103 18.2521L24.4902 11.273C23.5 6.99118 22.8681 4.10521 22.8775 3.81284C22.8775 2.90744 23.5471 1.98317 24.4337 1.65308C24.9335 1.46445 25.8389 1.52104 26.3293 1.77568ZM34.129 2.79426C35.2891 3.19038 35.987 4.6145 35.5814 5.75569C35.4211 6.18952 31.5166 13.0649 31.4883 12.9518C31.3657 12.5085 29.951 6.31213 29.951 6.18953C29.951 6.03862 30.8281 4.44474 31.3374 3.66194C31.592 3.28469 32.139 2.86971 32.554 2.73767C32.9973 2.60564 33.6575 2.63393 34.129 2.79426ZM18.3033 8.84915C18.7938 9.09436 19.1427 9.47161 19.3785 9.99976C19.5671 10.4147 19.5765 10.5939 19.5765 15.8472C19.5765 21.9681 19.6048 21.6851 18.822 22.383C18.2939 22.8735 17.9072 23.0149 17.1999 23.0149C16.219 23.0055 15.4268 22.5056 15.0118 21.6002C14.8232 21.1853 14.8137 21.0249 14.7855 16.0924C14.7666 12.6122 14.7949 10.8486 14.8609 10.4996C14.9741 9.9809 15.3702 9.35844 15.8135 9.03777C16.4642 8.55678 17.5677 8.4719 18.3033 8.84915ZM11.5505 10.3299C12.107 10.5185 12.5691 10.9052 12.8615 11.405L13.1161 11.8389L13.1444 16.4602C13.1633 20.5817 13.1538 21.1287 13.0124 21.4965C12.2107 23.5902 9.11725 23.4865 8.48536 21.355C8.37218 20.9401 8.35332 20.1573 8.37218 16.4036C8.40047 12.2538 8.40991 11.9049 8.57967 11.6031C9.18327 10.4619 10.4188 9.92432 11.5505 10.3299ZM24.3205 17.7711L24.594 18.9312L24.1036 19.4216C23.5377 19.9875 23.1038 20.8552 22.9624 21.6851C22.6983 23.3262 23.632 25.0898 25.1599 25.8349C25.8861 26.1933 26.5746 26.3159 27.9138 26.3159H28.9512L28.5268 26.6648C26.9707 27.9758 25.9427 29.6357 25.4711 31.5974C25.3013 32.3048 25.1787 34.0967 25.273 34.4645C25.3674 34.8606 25.6597 35.087 26.0653 35.087C26.6877 35.087 26.8009 34.8606 26.8764 33.5214C26.9612 31.8521 27.4705 30.2865 28.2628 29.2396C29.1493 28.0984 30.4885 27.127 31.8184 26.6648C32.5634 26.4102 32.7898 26.3819 34.2894 26.3253C35.6286 26.2782 35.9964 26.2404 36.1945 26.1084C36.7415 25.75 36.5717 24.9012 35.9115 24.722C35.6946 24.656 33.8461 24.6183 30.913 24.6183C25.8201 24.6183 25.9615 24.6277 25.2825 24.0429C23.9904 22.9018 24.3393 20.742 25.9427 20.0252C26.2822 19.8743 26.716 19.8555 30.5546 19.8272C33.2896 19.8083 35.0344 19.8366 35.4588 19.9026C36.8264 20.1101 37.9581 20.9684 38.5617 22.2321L38.8635 22.8735L38.8918 28.5322C38.9201 34.9361 38.9201 34.9832 38.2222 36.4074C37.911 37.0487 37.6752 37.3694 37.0244 38.0107C35.8455 39.1896 34.7609 39.7083 33.0633 39.9158C32.1296 40.0195 31.8844 40.1422 31.7335 40.5383C31.6109 40.8495 31.8561 41.3871 32.1673 41.5003C32.3088 41.5568 32.6012 41.5946 32.8369 41.5946H33.2519V43.7543C33.2519 45.7349 33.233 45.933 33.0727 46.131L32.8935 46.3574L23.0473 46.3857C17.6431 46.3951 13.1161 46.3857 13.0029 46.3574C12.8898 46.3291 12.7011 46.2159 12.5974 46.1027C12.4182 45.9047 12.4088 45.7821 12.4088 43.3205C12.4088 41.9058 12.4276 40.7458 12.4559 40.7458C12.4748 40.7458 12.72 40.8306 12.9935 40.9438C13.8235 41.2739 15.0401 41.5097 15.9172 41.5286C16.7377 41.5474 16.766 41.538 16.9924 41.2833C17.2847 40.9438 17.2847 40.5194 17.0018 40.2365C16.8226 40.0573 16.634 40.0007 16.0304 39.9535C12.3522 39.6234 9.56052 37.3505 8.61739 33.9081C8.41934 33.1913 8.40991 32.9461 8.37218 28.4945L8.34389 23.8449L8.61739 24.0335C9.03237 24.3353 9.77744 24.5994 10.3999 24.6654C11.5034 24.7975 12.6257 24.3919 13.4934 23.5714L13.9838 23.1093L14.4365 23.5431C14.9835 24.0712 15.8606 24.4957 16.6434 24.6277C18.5108 24.9201 20.4348 23.7223 21.0478 21.8643C21.2082 21.3739 23.8866 16.6017 23.9998 16.6017C24.0281 16.6017 24.179 17.1298 24.3205 17.7711Z" fill="black"/>
<path d="M11.5505 10.3299C12.107 10.5185 12.5691 10.9052 12.8615 11.405L13.1161 11.8389L13.1444 16.4602C13.1633 20.5817 13.1538 21.1287 13.0124 21.4965C12.2107 23.5902 9.11725 23.4865 8.48536 21.355C8.37218 20.9401 8.35332 20.1573 8.37218 16.4036C8.40047 12.2538 8.40991 11.9049 8.57967 11.6031C9.18327 10.4619 10.4188 9.92432 11.5505 10.3299Z" fill="#F9DBBB"/>
<path d="M24.3205 17.7711L24.594 18.9312L24.1036 19.4216C23.5377 19.9875 23.1038 20.8552 22.9624 21.6851C22.6983 23.3262 23.632 25.0898 25.1599 25.8349C25.8861 26.1933 26.5746 26.3159 27.9138 26.3159H28.9512L28.5268 26.6648C26.9707 27.9758 25.9427 29.6357 25.4711 31.5974C25.3013 32.3048 25.1787 34.0967 25.273 34.4645C25.3674 34.8606 25.6597 35.087 26.0653 35.087C26.6877 35.087 26.8009 34.8606 26.8764 33.5214C26.9612 31.8521 27.4705 30.2865 28.2628 29.2396C29.1493 28.0984 30.4885 27.127 31.8184 26.6648C32.5634 26.4102 32.7898 26.3819 34.2894 26.3253C35.6286 26.2782 35.9964 26.2404 36.1945 26.1084C36.7415 25.75 36.5717 24.9012 35.9115 24.722C35.6946 24.656 33.8461 24.6183 30.913 24.6183C25.8201 24.6183 25.9615 24.6277 25.2825 24.0429C23.9904 22.9018 24.3393 20.742 25.9427 20.0252C26.2822 19.8743 26.716 19.8555 30.5546 19.8272C33.2896 19.8083 35.0344 19.8366 35.4588 19.9026C36.8264 20.1101 37.9581 20.9684 38.5617 22.2321L38.8635 22.8735L38.8918 28.5322C38.9201 34.9361 38.9201 34.9832 38.2222 36.4074C37.911 37.0487 37.6752 37.3694 37.0244 38.0107C35.8455 39.1896 34.7609 39.7083 33.0633 39.9158C32.1296 40.0195 31.8844 40.1422 31.7335 40.5383C31.6109 40.8495 31.8561 41.3871 32.1673 41.5003C32.3088 41.5568 32.6012 41.5946 32.8369 41.5946H33.2519V43.7543C33.2519 45.7349 33.233 45.933 33.0727 46.131L32.8935 46.3574L23.0473 46.3857C17.6431 46.3951 13.1161 46.3857 13.0029 46.3574C12.8898 46.3291 12.7011 46.2159 12.5974 46.1027C12.4182 45.9047 12.4088 45.7821 12.4088 43.3205C12.4088 41.9058 12.4276 40.7458 12.4559 40.7458C12.4748 40.7458 12.72 40.8306 12.9935 40.9438C13.8235 41.2739 15.0401 41.5097 15.9172 41.5286C16.7377 41.5474 16.766 41.538 16.9924 41.2833C17.2847 40.9438 17.2847 40.5194 17.0018 40.2365C16.8226 40.0573 16.634 40.0007 16.0304 39.9535C12.3522 39.6234 9.56052 37.3505 8.61739 33.9081C8.41934 33.1913 8.40991 32.9461 8.37218 28.4945L8.34389 23.8449L8.61739 24.0335C9.03237 24.3353 9.77744 24.5994 10.3999 24.6654C11.5034 24.7975 12.6257 24.3919 13.4934 23.5714L13.9838 23.1093L14.4365 23.5431C14.9835 24.0712 15.8606 24.4957 16.6434 24.6277C18.5108 24.9201 20.4348 23.7223 21.0478 21.8643C21.2082 21.3739 23.8866 16.6017 23.9998 16.6017C24.0281 16.6017 24.179 17.1298 24.3205 17.7711Z" fill="#F9DBBB"/>
<path d="M18.3033 8.84915C18.7938 9.09436 19.1427 9.47161 19.3785 9.99976C19.5671 10.4147 19.5765 10.5939 19.5765 15.8472C19.5765 21.9681 19.6048 21.6851 18.822 22.383C18.2939 22.8735 17.9072 23.0149 17.1999 23.0149C16.219 23.0055 15.4268 22.5056 15.0118 21.6002C14.8232 21.1853 14.8137 21.0249 14.7855 16.0924C14.7666 12.6122 14.7949 10.8486 14.8609 10.4996C14.9741 9.9809 15.3702 9.35844 15.8135 9.03777C16.4642 8.55678 17.5677 8.4719 18.3033 8.84915Z" fill="#F9DBBB"/>
<path d="M26.3293 1.77568C26.8575 2.03976 27.3479 2.6245 27.5271 3.17151C27.7252 3.77511 31.0167 18.1107 30.979 18.1578C30.9601 18.1767 29.8566 18.205 28.5268 18.2238L26.103 18.2521L24.4902 11.273C23.5 6.99118 22.8681 4.10521 22.8775 3.81284C22.8775 2.90744 23.5471 1.98317 24.4337 1.65308C24.9335 1.46445 25.8389 1.52104 26.3293 1.77568Z" fill="#F9DBBB"/>
<path d="M34.129 2.79426C35.2891 3.19038 35.987 4.6145 35.5814 5.75569C35.4211 6.18952 31.5166 13.0649 31.4883 12.9518C31.3657 12.5085 29.951 6.31213 29.951 6.18953C29.951 6.03862 30.8281 4.44474 31.3374 3.66194C31.592 3.28469 32.139 2.86971 32.554 2.73767C32.9973 2.60564 33.6575 2.63393 34.129 2.79426Z" fill="#F9DBBB"/>
<path d="M14.2479 43.4337C13.8046 43.8675 14.0215 44.6126 14.6345 44.7635C14.7572 44.8012 15.125 44.8012 15.4456 44.7823C16.1341 44.7352 16.3699 44.5183 16.3699 43.9524C16.3699 43.3959 16.0587 43.1979 15.1721 43.1979C14.5591 43.1979 14.4459 43.2262 14.2479 43.4337Z" fill="black"/>
<path d="M18.3693 43.3488C18.0392 43.5751 17.9544 43.9052 18.1053 44.2825C18.1807 44.4523 18.3222 44.6409 18.4259 44.6975C18.69 44.8389 31.0167 44.8389 31.2808 44.7069C31.5448 44.5654 31.7618 44.0939 31.6863 43.8109C31.658 43.6789 31.5166 43.4903 31.3939 43.3865C31.1582 43.2073 30.9884 43.1979 24.8675 43.1979C19.2559 43.1979 18.558 43.2168 18.3693 43.3488Z" fill="black"/>
</svg>
