<svg width="48" height="48" viewBox="0 0 48 48" fill="none" xmlns="http://www.w3.org/2000/svg">
<path d="M10.1262 0.271922C9.82613 0.581347 9.77925 0.881396 10.0043 1.2002C10.0887 1.32209 12.3109 2.85984 14.9457 4.61325C17.5899 6.36666 19.784 7.83878 19.8403 7.88566C19.8871 7.93254 18.04 7.97005 15.4802 7.97005H11.0357L11.6358 7.36057C12.1421 6.84486 12.2359 6.70422 12.2359 6.42292C12.2359 5.97285 11.8983 5.62592 11.4576 5.62592C11.1576 5.62592 10.9982 5.74781 9.69486 7.06052C8.4009 8.35449 8.26025 8.52326 8.26025 8.81393C8.26025 9.10461 8.4009 9.27338 9.69486 10.5673C10.9326 11.8144 11.167 12.002 11.4201 12.002C11.8608 12.002 12.2359 11.6456 12.2359 11.2143C12.2359 10.9237 12.1515 10.7924 11.6546 10.286C11.3358 9.96725 11.0732 9.6672 11.0732 9.62969C11.0732 9.59219 13.7549 9.56406 17.0273 9.56406H22.9908L23.2158 9.32964C23.4596 9.08585 23.5159 8.73892 23.3471 8.4295C23.3002 8.32636 21.0311 6.76048 18.3119 4.94143L13.3705 1.64089L18.1619 1.61276L22.9533 1.59401L23.2064 1.35022C23.6002 0.947031 23.5159 0.375063 23.0095 0.112521C22.8595 0.028132 21.1436 2.38419e-06 16.6054 2.38419e-06H10.3981L10.1262 0.271922Z" fill="black"/>
<path d="M30.5389 0.103143C29.2262 0.412568 28.0728 1.50025 27.6603 2.80358C27.5009 3.34742 27.4821 3.69435 27.4821 7.27618C27.4821 9.41403 27.4634 11.1581 27.4446 11.1581C27.4259 11.1581 27.2196 11.0455 26.9758 10.9143C25.4193 10.0423 23.5252 10.3236 22.2219 11.6269C21.9781 11.8707 21.6874 12.2551 21.5749 12.4802C21.4624 12.7052 21.3499 12.9115 21.3311 12.9302C21.3217 12.9396 21.0592 12.8083 20.7592 12.6208C19.4652 11.8238 17.9181 11.8144 16.6147 12.5927C16.0334 12.9396 15.377 13.6335 15.1332 14.1586C14.9645 14.5242 14.7957 14.6274 14.6832 14.4398C14.5519 14.2336 13.483 13.7741 12.8641 13.671C10.8951 13.3334 8.91661 14.6461 8.39152 16.634C8.22275 17.2528 8.19462 32.1802 8.36339 33.3429C8.55092 34.7213 9.14164 36.2215 9.96678 37.4405C10.4262 38.1249 11.4108 39.1751 11.9171 39.522L12.2922 39.7846V42.982V46.1888L12.5359 46.6763C12.6672 46.9483 12.9298 47.2858 13.1173 47.4452C13.8393 48.0359 13.3142 48.0172 24.4441 47.989L34.5614 47.9609L34.9458 47.7546C35.1521 47.6421 35.4709 47.3889 35.6397 47.2014C36.2398 46.5169 36.2492 46.4607 36.2773 43.3383L36.3054 40.5066L36.8399 40.1409C37.4494 39.7283 38.462 38.6969 38.9121 38.0406C39.3059 37.4686 39.7185 36.5778 39.9717 35.7621C40.1686 35.1432 40.1779 34.9088 40.2154 30.8394C40.2436 26.0855 40.2248 25.8511 39.6435 24.6884C39.2778 23.9383 38.4527 23.0194 37.7025 22.513C37.1962 22.1849 36.4273 21.8754 35.7147 21.716L35.4522 21.6598V12.5833C35.4522 4.79141 35.4334 3.43181 35.3115 2.96298C34.7771 0.918899 32.6111 -0.384437 30.5389 0.103143ZM32.161 1.74403C32.733 1.91281 33.3143 2.39102 33.605 2.94423L33.8113 3.32867L33.8394 12.4426L33.8582 21.566H31.4671H29.0761V12.5364C29.0761 3.66622 29.0855 3.50682 29.273 3.09425C29.6669 2.22224 30.5014 1.62214 31.3828 1.60339C31.5422 1.59401 31.8891 1.65965 32.161 1.74403ZM26.1413 12.2739C26.3569 12.377 26.6757 12.6396 26.8633 12.8646C27.454 13.5585 27.4821 13.7554 27.4821 17.881V21.566H26.9945C26.3288 21.566 25.3443 21.791 24.8473 22.0442C24.6223 22.1567 24.191 22.4849 23.8909 22.7756C23.3565 23.2819 23.3377 23.2913 23.1971 23.1131C23.122 23.01 22.972 22.7568 22.8783 22.5505C22.7189 22.2036 22.7001 21.8754 22.7001 17.9935V13.821L22.9439 13.3334C23.3846 12.4426 24.2285 11.9738 25.2411 12.0395C25.5224 12.0582 25.935 12.1614 26.1413 12.2739ZM19.3808 13.7366C19.9903 13.9148 20.4685 14.3273 20.7685 14.9274L21.0123 15.415V18.7999V22.1849L20.7685 22.6724C20.0653 24.0789 18.3025 24.4258 17.0929 23.3851C16.8867 23.2069 16.6147 22.8693 16.4928 22.6162C16.2772 22.1755 16.2772 22.1473 16.2772 18.7999C16.2772 15.4525 16.2772 15.4244 16.4928 14.9837C16.8773 14.1961 17.768 13.6241 18.6307 13.6053C18.7901 13.596 19.1276 13.6616 19.3808 13.7366ZM13.3142 15.4619C13.7455 15.6869 14.205 16.1464 14.4206 16.5871C14.5707 16.8871 14.5894 17.2153 14.5894 19.6438C14.5894 22.6537 14.5894 22.6349 13.9424 23.2819C13.4548 23.7695 12.9954 23.957 12.2453 23.957C11.2982 23.9476 10.5669 23.5069 10.1074 22.6443C9.91052 22.288 9.90114 22.1567 9.90114 19.5969C9.90114 17.0371 9.91052 16.9059 10.1074 16.5496C10.7357 15.3775 12.1796 14.8899 13.3142 15.4619ZM36.3148 23.6007C37.44 24.1258 38.1526 24.9697 38.4995 26.1793C38.6308 26.6481 38.6496 27.22 38.6214 30.7738L38.5933 34.8338L38.3308 35.5933C37.8338 37.0748 36.6242 38.5188 35.2834 39.222C34.5426 39.6158 33.5206 39.9065 32.5923 40.0002C31.9078 40.0659 31.6453 40.1972 31.5047 40.5722C31.3921 40.8816 31.5797 41.3317 31.9172 41.5005C32.2266 41.6693 33.1268 41.6224 34.0926 41.3974L34.6083 41.2848V43.6008C34.6083 45.7481 34.5989 45.945 34.4301 46.1419L34.252 46.3669L24.4629 46.395C19.0901 46.4044 14.5894 46.395 14.4769 46.3669C14.3644 46.3388 14.1768 46.2263 14.0737 46.1137C13.8955 45.9168 13.8862 45.7949 13.8862 43.3477C13.8862 41.9412 13.9049 40.7879 13.933 40.7879C13.9518 40.7879 14.2425 40.891 14.5707 41.0129C15.4708 41.3505 16.5116 41.5568 17.4117 41.5755C18.1806 41.5849 18.2275 41.5755 18.4432 41.3223C18.7338 40.9848 18.7338 40.5628 18.4525 40.2815C18.2744 40.1034 18.0868 40.0471 17.4868 40.0002C13.8299 39.6721 11.0545 37.4123 10.1168 33.9899C9.9199 33.2773 9.91052 33.0054 9.87301 29.0391L9.84488 24.829L10.2481 25.0634C10.9232 25.4573 11.6639 25.626 12.5359 25.5792C13.1923 25.5417 13.4173 25.4854 14.0081 25.1947C14.4206 24.9884 14.8519 24.6884 15.0864 24.4352L15.4614 24.0227L15.8552 24.4258C17.3555 25.9542 19.8121 25.9823 21.4061 24.4915L21.8656 24.0695L22.2688 24.4634L22.6813 24.8665L22.7189 25.7761C22.747 26.5731 22.7939 26.77 23.0564 27.3044C23.4033 28.0077 24.0878 28.739 24.7442 29.0954C25.4755 29.4985 26.1694 29.6298 27.529 29.6298L28.748 29.6392L28.5135 29.8267C26.3851 31.552 25.2505 33.7367 25.0817 36.4372C24.9973 37.6842 25.063 38.0312 25.4474 38.2656C25.7944 38.4719 26.1132 38.4344 26.432 38.1437C26.6007 37.9749 26.6382 37.8436 26.6382 37.3186C26.6382 35.7714 27.0133 34.2618 27.679 33.1273C28.101 32.4053 29.4512 31.055 30.1544 30.6519C30.7358 30.3143 31.4765 29.9955 32.1235 29.8173C32.3298 29.7517 33.2487 29.6767 34.1582 29.6486C35.6491 29.5923 35.846 29.5642 36.0054 29.3954C36.3336 29.0766 36.3523 28.6734 36.0616 28.3359L35.8179 28.0452L30.9702 28.0171C25.4568 27.9889 25.6631 28.0171 24.9223 27.1919C24.3222 26.5262 24.1441 25.7011 24.4066 24.829C24.5473 24.3508 25.1286 23.7039 25.6256 23.4507C26.0194 23.2538 26.0944 23.2538 30.8577 23.2725L35.6866 23.3007L36.3148 23.6007Z" fill="black"/>
<path d="M32.161 1.74403C32.733 1.91281 33.3143 2.39102 33.605 2.94423L33.8113 3.32867L33.8394 12.4426L33.8582 21.566H31.4671H29.0761V12.5364C29.0761 3.66622 29.0855 3.50682 29.273 3.09425C29.6669 2.22224 30.5014 1.62214 31.3828 1.60339C31.5422 1.59401 31.8891 1.65965 32.161 1.74403Z" fill="#F9DBBB"/>
<path d="M26.1413 12.2739C26.3569 12.377 26.6757 12.6396 26.8633 12.8646C27.454 13.5585 27.4821 13.7554 27.4821 17.881V21.566H26.9945C26.3288 21.566 25.3443 21.791 24.8473 22.0442C24.6223 22.1567 24.191 22.4849 23.8909 22.7756C23.3565 23.2819 23.3377 23.2913 23.1971 23.1131C23.122 23.01 22.972 22.7568 22.8783 22.5505C22.7189 22.2036 22.7001 21.8754 22.7001 17.9935V13.821L22.9439 13.3334C23.3846 12.4426 24.2285 11.9738 25.2411 12.0395C25.5224 12.0582 25.935 12.1614 26.1413 12.2739Z" fill="#F9DBBB"/>
<path d="M19.3808 13.7366C19.9903 13.9148 20.4685 14.3273 20.7685 14.9274L21.0123 15.415V18.7999V22.1849L20.7685 22.6724C20.0653 24.0789 18.3025 24.4258 17.0929 23.3851C16.8867 23.2069 16.6147 22.8693 16.4928 22.6162C16.2772 22.1755 16.2772 22.1473 16.2772 18.7999C16.2772 15.4525 16.2772 15.4244 16.4928 14.9837C16.8773 14.1961 17.768 13.6241 18.6307 13.6053C18.7901 13.596 19.1276 13.6616 19.3808 13.7366Z" fill="#F9DBBB"/>
<path d="M13.3142 15.4619C13.7455 15.6869 14.205 16.1464 14.4206 16.5871C14.5707 16.8871 14.5894 17.2153 14.5894 19.6438C14.5894 22.6537 14.5894 22.6349 13.9424 23.2819C13.4548 23.7695 12.9954 23.957 12.2453 23.957C11.2982 23.9476 10.5669 23.5069 10.1074 22.6443C9.91052 22.288 9.90114 22.1567 9.90114 19.5969C9.90114 17.0371 9.91052 16.9059 10.1074 16.5496C10.7357 15.3775 12.1796 14.8899 13.3142 15.4619Z" fill="#F9DBBB"/>
<path d="M36.3148 23.6007C37.44 24.1258 38.1526 24.9697 38.4995 26.1793C38.6308 26.6481 38.6496 27.22 38.6214 30.7738L38.5933 34.8338L38.3308 35.5933C37.8338 37.0748 36.6242 38.5188 35.2834 39.222C34.5426 39.6158 33.5206 39.9065 32.5923 40.0002C31.9078 40.0659 31.6453 40.1972 31.5047 40.5722C31.3921 40.8816 31.5797 41.3317 31.9172 41.5005C32.2266 41.6693 33.1268 41.6224 34.0926 41.3974L34.6083 41.2848V43.6008C34.6083 45.7481 34.5989 45.945 34.4301 46.1419L34.252 46.3669L24.4629 46.395C19.0901 46.4044 14.5894 46.395 14.4769 46.3669C14.3644 46.3388 14.1768 46.2263 14.0737 46.1137C13.8955 45.9168 13.8862 45.7949 13.8862 43.3477C13.8862 41.9412 13.9049 40.7879 13.933 40.7879C13.9518 40.7879 14.2425 40.891 14.5707 41.0129C15.4708 41.3505 16.5116 41.5568 17.4117 41.5755C18.1806 41.5849 18.2275 41.5755 18.4432 41.3223C18.7338 40.9848 18.7338 40.5628 18.4525 40.2815C18.2744 40.1034 18.0868 40.0471 17.4868 40.0002C13.8299 39.6721 11.0545 37.4123 10.1168 33.9899C9.9199 33.2773 9.91052 33.0054 9.87301 29.0391L9.84488 24.829L10.2481 25.0634C10.9232 25.4573 11.6639 25.626 12.5359 25.5792C13.1923 25.5417 13.4173 25.4854 14.0081 25.1947C14.4206 24.9884 14.8519 24.6884 15.0864 24.4352L15.4614 24.0227L15.8552 24.4258C17.3555 25.9542 19.8121 25.9823 21.4061 24.4915L21.8656 24.0695L22.2688 24.4634L22.6813 24.8665L22.7189 25.7761C22.747 26.5731 22.7939 26.77 23.0564 27.3044C23.4033 28.0077 24.0878 28.739 24.7442 29.0954C25.4755 29.4985 26.1694 29.6298 27.529 29.6298L28.748 29.6392L28.5135 29.8267C26.3851 31.552 25.2505 33.7367 25.0817 36.4372C24.9973 37.6842 25.063 38.0312 25.4474 38.2656C25.7944 38.4719 26.1132 38.4344 26.432 38.1437C26.6007 37.9749 26.6382 37.8436 26.6382 37.3186C26.6382 35.7714 27.0133 34.2618 27.679 33.1273C28.101 32.4053 29.4512 31.055 30.1544 30.6519C30.7358 30.3143 31.4765 29.9955 32.1235 29.8173C32.3298 29.7517 33.2487 29.6767 34.1582 29.6486C35.6491 29.5923 35.846 29.5642 36.0054 29.3954C36.3336 29.0766 36.3523 28.6734 36.0616 28.3359L35.8179 28.0452L30.9702 28.0171C25.4568 27.9889 25.6631 28.0171 24.9223 27.1919C24.3222 26.5262 24.1441 25.7011 24.4066 24.829C24.5473 24.3508 25.1286 23.7039 25.6256 23.4507C26.0194 23.2538 26.0944 23.2538 30.8577 23.2725L35.6866 23.3007L36.3148 23.6007Z" fill="#F9DBBB"/>
<path d="M15.7146 43.4602C15.2739 43.8915 15.4896 44.6322 16.0991 44.7823C16.221 44.8198 16.5867 44.8198 16.9055 44.801C17.5899 44.7541 17.8244 44.5385 17.8244 43.9759C17.8244 43.4227 17.5149 43.2258 16.6335 43.2258C16.0241 43.2258 15.9116 43.2539 15.7146 43.4602Z" fill="black"/>
<path d="M19.8122 43.3758C19.484 43.6008 19.3996 43.929 19.5496 44.3041C19.6246 44.4728 19.7653 44.6604 19.8684 44.7166C20.131 44.8573 32.3861 44.8573 32.6486 44.726C32.9112 44.5854 33.1268 44.1165 33.0518 43.8352C33.0237 43.704 32.883 43.5164 32.7611 43.4133C32.5267 43.2351 32.3579 43.2258 26.2726 43.2258C20.6935 43.2258 19.9997 43.2445 19.8122 43.3758Z" fill="black"/>
</svg>
